<svg xmlns="http://www.w3.org/2000/svg" width="32" height="32" viewBox="0 0 32 32">
  <circle cx="16" cy="16" r="15" fill="#1F8A3B"/>
  <circle cx="16" cy="16" r="13.4" fill="#3A145F"/>
  <circle cx="16" cy="16" r="13.4" fill="none" stroke="#D4AF37" stroke-width="0.8"/>

  <!-- Fig (round) -->
  <circle cx="16" cy="17" r="7.1" fill="#B3202D"/>

  <!-- Seeds (ring) -->
  <g fill="#E6C15A">
    <ellipse cx="16" cy="12.6" rx="0.55" ry="0.85"/>
    <ellipse cx="13.6" cy="13.7" rx="0.55" ry="0.85"/>
    <ellipse cx="18.4" cy="13.7" rx="0.55" ry="0.85"/>
    <ellipse cx="12.8" cy="16.2" rx="0.55" ry="0.85"/>
    <ellipse cx="16"  cy="16.2" rx="0.55" ry="0.85"/>
    <ellipse cx="19.2" cy="16.2" rx="0.55" ry="0.85"/>
    <ellipse cx="13.6" cy="18.7" rx="0.55" ry="0.85"/>
    <ellipse cx="18.4" cy="18.7" rx="0.55" ry="0.85"/>
    <ellipse cx="16" cy="20.0" rx="0.55" ry="0.85"/>
  </g>

  <!-- T (slightly thinner) -->
  <path fill="#D4AF37" d="M9 9.6h14c.9 0 1.3.4 1.3 1s-.4 1-1.3 1h-4.6v10.8c0 1.2-1 2.2-2.4 2.2s-2.4-1-2.4-2.2V11.6H9c-.9 0-1.3-.4-1.3-1s.4-1 1.3-1z"/>
</svg>
